<?xml version="1.0" standalone="no"?>
<!DOCTYPE svg PUBLIC "-//W3C//DTD SVG 20010904//EN"
 "http://www.w3.org/TR/2001/REC-SVG-20010904/DTD/svg10.dtd">
<svg version="1.0" xmlns="http://www.w3.org/2000/svg"
 width="2500.000000pt" height="2500.000000pt" viewBox="0 0 2500.000000 2500.000000"
 preserveAspectRatio="xMidYMid meet">
<metadata>
Created by potrace 1.11, written by Peter Selinger 2001-2013
</metadata>
<g transform="translate(0.000000,2500.000000) scale(0.100000,-0.100000)"
fill="#000000" stroke="none">
<path d="M13181 24938 c12 -29 35 -89 51 -133 16 -44 36 -98 44 -120 8 -22 17
-47 19 -55 2 -8 20 -62 40 -120 20 -58 38 -112 40 -121 2 -9 11 -39 20 -65 9
-27 18 -56 20 -64 2 -9 15 -54 29 -100 36 -120 117 -435 130 -502 2 -13 9 -41
14 -63 6 -22 13 -52 16 -68 3 -15 7 -35 10 -45 3 -9 7 -33 10 -52 3 -19 8 -46
12 -60 6 -28 19 -94 29 -154 4 -21 9 -48 12 -60 2 -11 6 -32 8 -46 1 -14 8
-52 14 -85 6 -33 13 -78 15 -100 6 -43 14 -101 21 -150 2 -16 7 -52 10 -80 4
-27 8 -61 11 -75 2 -14 6 -59 9 -100 4 -41 8 -86 10 -100 2 -14 7 -65 11 -115
3 -49 8 -108 9 -130 24 -297 24 -923 0 -1210 -2 -27 -7 -88 -10 -135 -3 -47
-8 -98 -10 -115 -2 -16 -7 -57 -10 -90 -10 -98 -15 -139 -20 -165 -2 -14 -7
-47 -10 -75 -3 -27 -8 -62 -10 -76 -3 -14 -7 -41 -9 -60 -6 -41 -25 -166 -31
-194 -2 -11 -9 -45 -14 -75 -17 -86 -18 -90 -36 -175 -9 -44 -19 -91 -21 -105
-29 -150 -171 -644 -239 -830 -9 -25 -17 -49 -19 -55 -2 -5 -8 -23 -14 -38 -7
-16 -12 -31 -12 -33 0 -3 -19 -54 -42 -112 -23 -59 -43 -109 -44 -112 -1 -8
-15 -41 -35 -87 -11 -23 -19 -44 -19 -47 0 -2 -16 -39 -36 -83 -19 -43 -48
-105 -62 -138 -34 -75 -232 -468 -260 -515 -11 -19 -30 -53 -42 -74 -12 -22
-54 -93 -93 -159 -40 -65 -79 -130 -87 -145 -8 -15 -18 -28 -22 -30 -5 -2 -8
-7 -8 -12 0 -13 -254 -385 -317 -465 -4 -6 -21 -28 -37 -50 -40 -54 -247 -317
-263 -333 -6 -7 -29 -34 -50 -59 -21 -26 -45 -54 -53 -63 -8 -9 -37 -42 -65
-74 -247 -288 -688 -729 -1019 -1019 -33 -29 -67 -59 -76 -67 -8 -8 -60 -53
-115 -100 -55 -47 -105 -89 -112 -95 -6 -5 -31 -26 -54 -45 -24 -19 -56 -47
-73 -62 -16 -16 -32 -28 -35 -28 -3 0 -17 -10 -31 -23 -22 -20 -124 -102 -221
-177 -277 -216 -337 -260 -351 -260 -13 0 -84 78 -150 165 -4 6 -27 35 -51 65
-24 30 -54 71 -67 90 -13 19 -30 41 -37 48 -7 7 -13 17 -13 21 0 4 -8 16 -18
27 -18 20 -166 246 -198 303 -10 18 -25 43 -32 55 -118 194 -292 560 -384 811
-68 186 -168 518 -183 610 -3 17 -9 41 -14 55 -5 14 -15 54 -21 90 -7 36 -14
74 -16 85 -9 47 -34 183 -38 215 -3 19 -8 52 -11 73 -3 20 -8 54 -11 75 -9 61
-16 127 -28 262 -4 41 -9 93 -11 115 -9 85 -19 359 -19 548 -1 108 -4 197 -8
197 -12 0 -192 -186 -305 -316 -29 -34 -157 -176 -173 -193 -8 -9 -55 -63
-105 -121 -49 -58 -92 -107 -95 -110 -3 -3 -30 -34 -60 -70 -31 -36 -65 -76
-77 -90 -71 -82 -252 -303 -397 -485 -92 -115 -175 -219 -184 -230 -16 -19
-51 -64 -192 -249 -93 -122 -170 -225 -277 -371 -56 -77 -106 -145 -111 -150
-5 -6 -17 -24 -28 -40 -10 -17 -21 -32 -24 -35 -5 -4 -145 -199 -180 -250 -6
-8 -36 -51 -67 -95 -66 -93 -408 -605 -477 -715 -27 -41 -57 -87 -67 -102 -10
-15 -19 -31 -19 -37 0 -5 -4 -11 -8 -13 -13 -5 -472 -758 -472 -774 0 -3 -16
-30 -35 -60 -19 -30 -35 -56 -35 -59 0 -2 -14 -28 -31 -57 -17 -29 -50 -87
-72 -128 -22 -41 -43 -79 -48 -85 -4 -5 -24 -41 -44 -80 -20 -38 -49 -92 -63
-120 -15 -27 -31 -53 -37 -57 -5 -4 -6 -8 -1 -8 5 0 4 -6 -1 -12 -17 -22 -99
-179 -219 -421 -63 -127 -121 -244 -129 -259 -8 -14 -15 -33 -15 -42 0 -9 -4
-16 -10 -16 -5 0 -10 -4 -10 -10 0 -5 -15 -40 -33 -77 -18 -38 -34 -71 -35
-75 -2 -4 -21 -47 -43 -95 -47 -103 -250 -573 -253 -588 -2 -5 -8 -23 -16 -40
-24 -57 -29 -70 -61 -150 -43 -111 -140 -368 -143 -380 -2 -5 -6 -17 -9 -25
-70 -182 -260 -777 -303 -945 -4 -16 -8 -34 -10 -40 -6 -20 -45 -160 -48 -175
-31 -124 -76 -311 -80 -330 -2 -14 -13 -65 -25 -115 -22 -98 -50 -235 -57
-275 -3 -14 -13 -74 -24 -135 -11 -60 -22 -126 -25 -145 -3 -19 -7 -46 -10
-60 -2 -14 -7 -45 -10 -70 -4 -25 -8 -58 -11 -75 -3 -16 -7 -48 -9 -69 -3 -21
-7 -55 -10 -75 -11 -79 -17 -128 -20 -171 -2 -25 -6 -63 -9 -86 -3 -22 -8 -74
-11 -116 -3 -42 -7 -95 -10 -119 -19 -187 -27 -908 -12 -1129 14 -208 40 -477
53 -545 2 -11 6 -42 9 -70 4 -27 17 -115 30 -195 24 -142 29 -169 40 -220 3
-14 8 -36 10 -50 2 -14 7 -36 10 -50 3 -14 8 -36 11 -50 2 -14 7 -36 11 -50 3
-14 7 -29 8 -35 2 -5 10 -39 19 -75 9 -36 18 -74 21 -85 9 -39 36 -140 42
-155 3 -8 8 -23 10 -33 19 -100 196 -592 274 -765 16 -34 29 -65 29 -67 0 -11
163 -341 175 -355 8 -8 13 -19 13 -23 0 -7 49 -96 145 -262 166 -287 469 -696
736 -990 62 -68 401 -406 447 -446 16 -14 66 -57 109 -95 64 -56 206 -172 366
-299 53 -42 310 -222 399 -280 191 -124 210 -135 220 -135 5 0 10 -4 10 -8 0
-4 24 -20 53 -36 28 -15 79 -43 112 -63 161 -94 498 -266 700 -357 72 -32 150
-68 175 -79 25 -11 47 -21 50 -21 3 -1 50 -20 105 -43 55 -23 132 -53 170 -68
39 -14 84 -33 100 -40 17 -8 43 -16 59 -19 15 -3 33 -9 39 -14 9 -7 124 -49
157 -57 3 -1 14 -5 25 -9 53 -20 72 -27 90 -30 11 -3 58 -18 105 -34 47 -16
87 -29 90 -29 3 -1 37 -11 75 -23 39 -12 77 -23 85 -25 8 -2 65 -18 125 -35
61 -18 117 -33 125 -35 14 -3 77 -20 170 -45 64 -18 324 -78 364 -84 21 -4 41
-8 45 -10 3 -3 26 -7 51 -11 25 -4 48 -9 52 -11 4 -3 22 -7 40 -9 38 -5 72
-12 96 -19 9 -3 35 -7 57 -11 36 -5 103 -17 250 -45 28 -5 70 -12 95 -15 25
-3 52 -8 60 -10 8 -2 38 -7 65 -10 28 -4 59 -9 70 -10 11 -2 40 -6 65 -9 25
-4 61 -9 80 -11 19 -3 51 -8 70 -10 189 -23 214 -26 244 -31 16 -3 57 -7 90
-10 34 -2 75 -6 91 -8 207 -24 504 -45 885 -62 207 -10 1082 -10 1335 0 273
10 394 15 482 21 43 3 117 7 164 10 47 2 114 6 150 9 72 6 187 15 269 21 30 2
82 7 115 10 106 10 139 13 210 20 39 3 81 8 95 10 14 3 48 7 75 10 133 14 149
16 255 30 19 3 55 7 80 10 25 3 56 7 70 10 14 2 45 7 70 10 25 3 56 8 70 10
32 6 74 12 130 20 46 6 79 12 115 19 11 2 40 7 65 11 25 3 79 13 120 22 41 8
91 17 110 19 19 3 43 7 52 10 10 3 30 7 45 10 109 19 476 100 503 111 8 3 20
7 25 7 60 8 698 193 777 225 13 6 79 30 148 55 69 24 139 50 155 56 17 7 39
16 50 20 32 12 338 142 355 151 8 4 96 47 195 95 154 75 264 133 435 231 280
160 630 407 884 623 156 133 238 209 401 374 209 211 279 287 423 463 99 121
253 324 288 378 10 17 21 32 25 35 12 11 109 160 109 169 0 5 4 11 9 13 11 4
171 262 171 276 0 6 4 12 8 14 5 1 41 62 81 133 39 72 78 141 87 155 18 32
254 508 254 514 0 2 16 38 35 79 19 41 35 77 35 81 0 5 28 70 60 141 51 112
213 551 285 775 26 80 51 154 55 165 23 54 142 501 154 579 4 21 8 41 10 45 3
3 7 26 11 51 4 25 8 47 10 50 2 3 6 21 9 40 7 41 11 63 36 195 10 55 21 120
24 145 3 25 8 54 10 66 2 12 7 45 11 74 4 29 8 61 10 70 4 19 16 111 20 150 2
14 5 43 9 65 3 22 9 67 12 100 3 33 7 71 9 85 2 24 11 113 20 225 8 93 17 210
20 270 2 33 7 130 11 215 15 301 9 1185 -11 1425 -2 28 -6 93 -10 145 -13 196
-16 236 -21 280 -6 57 -11 105 -18 200 -3 41 -8 84 -10 96 -2 11 -7 53 -11 93
-3 40 -8 80 -10 89 -1 9 -6 44 -9 77 -8 69 -15 119 -21 155 -4 23 -8 50 -19
140 -5 36 -9 65 -27 180 -6 36 -12 76 -14 90 -2 14 -6 41 -10 60 -4 19 -8 46
-10 60 -4 27 -32 179 -40 220 -3 14 -8 45 -11 70 -3 25 -8 48 -10 51 -2 3 -6
21 -9 40 -3 19 -8 45 -10 59 -12 70 -25 132 -29 138 -2 4 -7 28 -11 52 -3 25
-11 63 -16 85 -5 22 -12 51 -15 65 -3 13 -14 61 -24 106 -11 45 -22 95 -25
111 -2 15 -28 120 -56 233 -28 113 -52 213 -54 223 -2 10 -8 32 -14 50 -5 18
-14 50 -20 72 -28 104 -153 543 -161 565 -5 14 -30 93 -55 175 -77 246 -237
716 -278 815 -5 14 -11 30 -12 35 -3 11 -78 210 -100 265 -7 19 -51 127 -96
240 -75 189 -157 387 -179 435 -5 11 -32 74 -61 140 -28 66 -56 126 -62 133
-5 6 -7 12 -4 12 4 0 -4 21 -17 48 -13 26 -33 67 -44 92 -11 25 -39 86 -62
135 -23 50 -56 119 -72 155 -46 100 -290 590 -361 725 -166 316 -201 380 -209
383 -4 2 -8 12 -8 22 0 10 -4 21 -9 24 -5 3 -21 29 -36 58 -29 57 -255 455
-293 516 -12 20 -25 44 -29 52 -10 22 -304 505 -371 610 -73 114 -87 135 -95
141 -5 3 -7 8 -6 10 4 6 -6 20 -268 414 -211 315 -328 488 -365 537 -7 10 -29
40 -48 68 -60 86 -311 434 -334 461 -11 14 -28 36 -36 48 -8 13 -44 61 -80
108 -36 47 -69 93 -75 102 -5 9 -12 18 -15 21 -5 4 -84 107 -261 336 -30 40
-69 90 -86 111 -37 44 -157 195 -193 242 -14 18 -36 45 -50 61 -14 16 -65 78
-115 139 -49 61 -93 111 -97 111 -4 0 -8 5 -8 10 0 10 -150 190 -409 490 -69
80 -130 150 -136 156 -5 6 -37 42 -70 79 -33 38 -64 73 -70 79 -5 6 -39 45
-75 86 -36 41 -78 88 -95 106 -29 30 -165 180 -195 214 -23 27 -187 204 -239
258 -25 27 -101 107 -168 178 -477 505 -1183 1204 -1648 1631 -55 50 -123 113
-151 140 -130 124 -315 283 -328 283 -3 0 4 -24 15 -52z"/>
</g>
</svg>
